<?xml version="1.0" encoding="UTF-8"?>
<svg id="Layer_1" data-name="Layer 1" xmlns="http://www.w3.org/2000/svg" viewBox="0 0 75 75">
  <defs>
    <style>
      .cls-1 {
        fill: #53b97c;
      }
    </style>
  </defs>
  <path class="cls-1" d="M39.66,66.79c-8.01,0-15.77-3.29-21.41-9.35l9.05-8.43c4.32,4.64,10.78,6.47,16.89,4.79,4.35-1.2,7.98-4.03,10.21-7.95,2.23-3.93,2.8-8.49,1.6-12.84-1.2-4.36-4.02-7.98-7.95-10.21-3.93-2.23-8.49-2.8-12.84-1.6-5.54,1.53-9.88,5.71-11.63,11.19l-11.79-3.75c3.02-9.48,10.54-16.72,20.13-19.36,7.54-2.08,15.44-1.1,22.24,2.76,6.8,3.86,11.69,10.14,13.77,17.68,2.08,7.54,1.1,15.44-2.77,22.24-3.86,6.8-10.14,11.69-17.68,13.77-2.59,.71-5.22,1.06-7.82,1.06Z"/>
  <polygon class="cls-1" points="32.85 39.03 6.01 38.57 6.48 11.21 18.85 11.43 18.59 26.42 33.06 26.67 32.85 39.03"/>
</svg>